<svg xmlns="http://www.w3.org/2000/svg" id="Livello_2" data-name="Livello 2" viewBox="0 0 882.32 225.37"><defs><style>      .cls-1 {        fill: #fff;      }    </style></defs><g id="Livello_1-2" data-name="Livello 1"><g><path class="cls-1" d="M111.38,124.97h-33.83L22.93,36.14h-.78c1.09,15.69,1.63,26.88,1.63,33.58v55.25H0V7.56h33.58l54.53,87.93h.61c-.86-15.26-1.29-26.05-1.29-32.37V7.56h23.96v117.41Z"></path><path class="cls-1" d="M214.98,79.91c0,14.62-4.12,26.05-12.36,34.29-8.25,8.25-19.73,12.37-34.44,12.37-9.22,0-17.34-1.89-24.39-5.66-7.04-3.77-12.45-9.19-16.23-16.26-3.77-7.07-5.66-15.31-5.66-24.74,0-14.67,4.09-26.08,12.27-34.22,8.19-8.14,19.7-12.2,34.53-12.2,9.21,0,17.34,1.87,24.39,5.62,7.04,3.75,12.45,9.13,16.22,16.14,3.78,7.02,5.67,15.23,5.67,24.65M148.6,79.91c0,8.89,1.56,15.61,4.68,20.16,3.12,4.55,8.2,6.83,15.25,6.83s12-2.26,15.06-6.79c3.07-4.51,4.6-11.25,4.6-20.19s-1.54-15.56-4.64-20c-3.09-4.45-8.15-6.67-15.2-6.67s-12.02,2.21-15.12,6.63c-3.09,4.42-4.63,11.09-4.63,20.04"></path><path class="cls-1" d="M246.27,124.97l-36.58-89.78h27.4l18.55,51.15c2.06,6.48,3.35,12.61,3.86,18.39h.52c.29-5.14,1.57-11.28,3.86-18.39l18.46-51.15h27.39l-36.59,89.78h-26.87Z"></path><path class="cls-1" d="M371.25,124.97l-5.07-12.21h-.68c-4.42,5.2-8.96,8.8-13.61,10.8-4.67,2.01-10.75,3.02-18.25,3.02-9.21,0-16.47-2.46-21.77-7.39-5.3-4.92-7.94-11.94-7.94-21.04s3.55-16.56,10.68-21.08c7.13-4.52,17.87-7.03,32.25-7.51l16.66-.48v-3.94c0-9.1-4.98-13.65-14.94-13.65-7.68,0-16.69,2.17-27.05,6.51l-8.68-16.55c11.05-5.41,23.3-8.11,36.75-8.11s22.76,2.63,29.63,7.86c6.87,5.25,10.31,13.23,10.31,23.93v59.84h-18.29ZM363.52,83.36l-10.14.32c-7.61.22-13.28,1.5-17,3.86-3.73,2.36-5.59,5.94-5.59,10.76,0,6.92,4.23,10.37,12.71,10.37,6.07,0,10.92-1.64,14.55-4.9,3.64-3.27,5.46-7.6,5.46-13.01v-7.39Z"></path><path class="cls-1" d="M442.3,126.57c-29.88,0-44.82-15.34-44.82-46.01,0-15.26,4.06-26.92,12.19-34.98,8.13-8.05,19.78-12.09,34.96-12.09,11.1,0,21.06,2.04,29.88,6.1l-7.72,18.96c-4.13-1.56-7.96-2.82-11.51-3.82-3.55-.99-7.09-1.49-10.64-1.49-13.64,0-20.44,9.05-20.44,27.14s6.81,26.34,20.44,26.34c5.03,0,9.7-.63,13.99-1.89,4.29-1.26,8.59-3.22,12.88-5.9v20.96c-4.24,2.52-8.52,4.26-12.84,5.23-4.33.96-9.77,1.44-16.36,1.44"></path><path class="cls-1" d="M548.56,124.97l-3.52-11.48h-1.37c-2.81,4.17-6.79,7.4-11.93,9.68-5.16,2.27-11.02,3.41-17.61,3.41-11.28,0-19.78-2.82-25.51-8.47-5.72-5.66-8.58-13.78-8.58-24.38v-58.54h26.19v52.44c0,6.48,1.23,11.34,3.69,14.58,2.46,3.24,6.38,4.86,11.77,4.86,7.32,0,12.62-2.3,15.89-6.87,3.26-4.57,4.89-12.16,4.89-22.76v-42.24h26.19v89.78h-20.1Z"></path><path class="cls-1" d="M621.93,126.57c-29.88,0-44.82-15.34-44.82-46.01,0-15.26,4.06-26.92,12.19-34.98,8.13-8.05,19.78-12.09,34.96-12.09,11.1,0,21.06,2.04,29.88,6.1l-7.73,18.96c-4.12-1.56-7.96-2.82-11.5-3.82-3.55-.99-7.09-1.49-10.64-1.49-13.64,0-20.45,9.05-20.45,27.14s6.81,26.34,20.45,26.34c5.03,0,9.7-.63,13.99-1.89,4.29-1.26,8.59-3.22,12.89-5.9v20.96c-4.24,2.52-8.52,4.26-12.84,5.23-4.33.96-9.77,1.44-16.36,1.44"></path><path class="cls-1" d="M659.06,11.97c0-7.98,4.75-11.97,14.25-11.97s14.26,3.99,14.26,11.97c0,3.8-1.19,6.76-3.57,8.87-2.38,2.11-5.93,3.17-10.69,3.17-9.51,0-14.25-4.02-14.25-12.05M686.37,124.97h-26.19V35.18h26.19v89.78Z"></path><path class="cls-1" d="M789.28,124.97h-26.19v-52.44c0-6.48-1.23-11.34-3.69-14.58-2.46-3.24-6.39-4.86-11.77-4.86-7.33,0-12.62,2.29-15.88,6.87-3.27,4.59-4.9,12.17-4.9,22.77v42.24h-26.19V35.18h20.01l3.51,11.48h1.46c2.93-4.33,6.95-7.62,12.07-9.84,5.13-2.22,10.95-3.34,17.48-3.34,11.16,0,19.64,2.82,25.42,8.48,5.78,5.64,8.67,13.8,8.67,24.45v58.55Z"></path><path class="cls-1" d="M864.03,124.97l-5.07-12.21h-.68c-4.42,5.2-8.96,8.8-13.61,10.8-4.66,2.01-10.75,3.02-18.25,3.02-9.21,0-16.47-2.46-21.77-7.39-5.29-4.92-7.95-11.94-7.95-21.04s3.56-16.56,10.69-21.08c7.13-4.52,17.88-7.03,32.25-7.51l16.66-.48v-3.94c0-9.1-4.98-13.65-14.95-13.65-7.66,0-16.68,2.17-27.04,6.51l-8.68-16.55c11.05-5.41,23.3-8.11,36.76-8.11s22.76,2.63,29.62,7.86c6.87,5.25,10.31,13.23,10.31,23.93v59.84h-18.29ZM856.3,83.36l-10.14.32c-7.61.22-13.28,1.5-17,3.86-3.72,2.36-5.59,5.94-5.59,10.76,0,6.92,4.23,10.37,12.71,10.37,6.07,0,10.92-1.64,14.55-4.9,3.64-3.27,5.46-7.6,5.46-13.01v-7.39Z"></path><path class="cls-1" d="M148.05,217.91h13.14c2.51,0,4.51-.69,6-2.07,1.49-1.38,2.23-3.22,2.23-5.52s-.75-4.2-2.23-5.58c-1.49-1.39-3.49-2.08-6-2.08h-13.14v15.25ZM148.05,196.02h12.7c2.04,0,3.68-.59,4.92-1.76s1.85-2.71,1.85-4.63-.62-3.4-1.85-4.47c-1.23-1.06-2.87-1.59-4.92-1.59h-12.7v12.44ZM140.52,224.61v-47.54h20.04c2.97,0,5.55.52,7.72,1.56,2.17,1.04,3.83,2.53,4.98,4.46,1.15,1.94,1.72,4.22,1.72,6.86,0,2.3-.58,4.39-1.76,6.28-1.17,1.9-2.99,3.39-5.46,4.5v-3.19c2.17.85,3.93,1.93,5.3,3.22,1.36,1.3,2.35,2.75,2.97,4.37.62,1.62.93,3.32.93,5.1,0,4.47-1.46,7.98-4.37,10.53-2.92,2.55-6.91,3.83-11.96,3.83h-20.1Z"></path><path class="cls-1" d="M194.37,207.25h14.86l-8.42-24.89h2.1l-8.55,24.89ZM180.46,224.61l16.72-47.54h9.31l16.72,47.54h-8.04l-3.64-10.65h-19.33l-3.7,10.65h-8.04Z"></path><polygon class="cls-1" points="234.06 224.61 234.06 183.77 221.43 183.77 221.43 177.07 253.97 177.07 253.97 183.77 241.53 183.77 241.53 224.61 234.06 224.61"></polygon><polygon class="cls-1" points="259.58 224.61 259.58 177.07 267.11 177.07 267.11 198 289.13 198 289.13 177.07 296.6 177.07 296.6 224.61 289.13 224.61 289.13 204.7 267.11 204.7 267.11 224.61 259.58 224.61"></polygon><path class="cls-1" d="M339.73,225.37c-3.36,0-6.48-.62-9.35-1.85-2.87-1.23-5.36-2.95-7.46-5.14-2.1-2.19-3.75-4.77-4.94-7.75-1.19-2.98-1.79-6.25-1.79-9.83s.58-6.79,1.76-9.8c1.17-3,2.81-5.59,4.94-7.78,2.13-2.19,4.61-3.89,7.46-5.11,2.85-1.21,5.97-1.81,9.38-1.81s6.37.58,9.03,1.72c2.66,1.15,4.9,2.65,6.74,4.5,1.83,1.85,3.14,3.86,3.95,6.03l-6.76,3.19c-1.02-2.55-2.65-4.63-4.88-6.22-2.24-1.6-4.93-2.4-8.08-2.4s-5.93.75-8.36,2.24c-2.43,1.49-4.31,3.55-5.65,6.19-1.34,2.64-2.01,5.72-2.01,9.25s.67,6.62,2.01,9.28c1.34,2.66,3.22,4.72,5.65,6.19s5.21,2.2,8.36,2.2,5.84-.79,8.08-2.36c2.23-1.57,3.86-3.64,4.88-6.19l6.76,3.19c-.81,2.13-2.13,4.13-3.95,6-1.83,1.87-4.08,3.38-6.74,4.53-2.65,1.15-5.67,1.72-9.03,1.72"></path><path class="cls-1" d="M390.26,218.48c2.47,0,4.73-.45,6.79-1.34,2.06-.89,3.86-2.14,5.39-3.73,1.53-1.6,2.72-3.46,3.58-5.61.85-2.15,1.27-4.48,1.27-6.99s-.43-4.83-1.27-6.95c-.85-2.13-2.04-4-3.58-5.61-1.53-1.62-3.33-2.87-5.39-3.76-2.06-.9-4.33-1.34-6.79-1.34s-4.73.45-6.79,1.34c-2.07.89-3.86,2.14-5.39,3.76-1.53,1.62-2.71,3.49-3.54,5.61-.83,2.13-1.25,4.45-1.25,6.95s.42,4.84,1.25,6.99c.83,2.15,2.01,4.02,3.54,5.61,1.53,1.59,3.34,2.84,5.42,3.73,2.08.89,4.34,1.34,6.77,1.34M390.26,225.37c-3.45,0-6.65-.62-9.6-1.85-2.96-1.23-5.55-2.95-7.79-5.17-2.23-2.21-3.98-4.81-5.23-7.79-1.25-2.98-1.88-6.23-1.88-9.76s.63-6.79,1.88-9.8c1.26-3,2.99-5.59,5.2-7.78,2.21-2.19,4.8-3.89,7.78-5.11,2.98-1.21,6.19-1.81,9.64-1.81s6.71.6,9.67,1.81c2.95,1.22,5.55,2.93,7.79,5.14,2.23,2.21,3.96,4.81,5.2,7.79s1.85,6.23,1.85,9.76-.63,6.78-1.88,9.76c-1.26,2.98-2.99,5.57-5.2,7.79-2.21,2.21-4.81,3.93-7.78,5.17-2.98,1.23-6.19,1.85-9.64,1.85"></path><polygon class="cls-1" points="423.19 224.61 423.19 177.07 430.72 177.07 430.72 217.91 451.27 217.91 451.27 224.61 423.19 224.61"></polygon><polygon class="cls-1" points="457.58 224.61 457.58 177.07 465.11 177.07 465.11 217.91 485.66 217.91 485.66 224.61 457.58 224.61"></polygon><polygon class="cls-1" points="491.97 224.61 491.97 177.07 523.3 177.07 523.3 183.77 499.5 183.77 499.5 197.43 522.02 197.43 522.02 204.12 499.5 204.12 499.5 217.91 523.3 217.91 523.3 224.61 491.97 224.61"></polygon><path class="cls-1" d="M552.46,225.37c-3.36,0-6.48-.62-9.35-1.85-2.87-1.23-5.36-2.95-7.46-5.14-2.1-2.19-3.75-4.77-4.94-7.75-1.19-2.98-1.79-6.25-1.79-9.83s.58-6.79,1.76-9.8c1.17-3,2.81-5.59,4.94-7.78,2.13-2.19,4.61-3.89,7.46-5.11,2.85-1.21,5.97-1.81,9.38-1.81s6.37.58,9.03,1.72c2.66,1.15,4.9,2.65,6.74,4.5,1.83,1.85,3.15,3.86,3.95,6.03l-6.76,3.19c-1.02-2.55-2.65-4.63-4.88-6.22-2.24-1.6-4.93-2.4-8.08-2.4s-5.93.75-8.36,2.24c-2.43,1.49-4.31,3.55-5.65,6.19-1.34,2.64-2.01,5.72-2.01,9.25s.67,6.62,2.01,9.28c1.34,2.66,3.22,4.72,5.65,6.19s5.21,2.2,8.36,2.2,5.84-.79,8.08-2.36c2.23-1.57,3.86-3.64,4.88-6.19l6.76,3.19c-.8,2.13-2.13,4.13-3.95,6-1.83,1.87-4.08,3.38-6.74,4.53-2.65,1.15-5.67,1.72-9.03,1.72"></path><polygon class="cls-1" points="588.32 224.61 588.32 183.77 575.69 183.77 575.69 177.07 608.23 177.07 608.23 183.77 595.79 183.77 595.79 224.61 588.32 224.61"></polygon><rect class="cls-1" x="613.85" y="177.07" width="7.53" height="47.54"></rect><path class="cls-1" d="M654.3,218.48c2.47,0,4.73-.45,6.79-1.34,2.06-.89,3.86-2.14,5.39-3.73,1.53-1.6,2.72-3.46,3.58-5.61.85-2.15,1.27-4.48,1.27-6.99s-.43-4.83-1.27-6.95c-.85-2.13-2.04-4-3.58-5.61-1.53-1.62-3.33-2.87-5.39-3.76-2.06-.9-4.33-1.34-6.79-1.34s-4.73.45-6.79,1.34c-2.07.89-3.86,2.14-5.39,3.76-1.53,1.62-2.71,3.49-3.54,5.61-.83,2.13-1.25,4.45-1.25,6.95s.41,4.84,1.25,6.99c.83,2.15,2.01,4.02,3.54,5.61,1.53,1.59,3.34,2.84,5.42,3.73,2.08.89,4.34,1.34,6.77,1.34M654.3,225.37c-3.45,0-6.65-.62-9.6-1.85-2.96-1.23-5.55-2.95-7.79-5.17-2.23-2.21-3.98-4.81-5.23-7.79-1.25-2.98-1.88-6.23-1.88-9.76s.63-6.79,1.88-9.8c1.26-3,2.99-5.59,5.2-7.78,2.21-2.19,4.8-3.89,7.78-5.11,2.98-1.21,6.19-1.81,9.64-1.81s6.71.6,9.67,1.81c2.95,1.22,5.55,2.93,7.79,5.14,2.23,2.21,3.96,4.81,5.2,7.79s1.85,6.23,1.85,9.76-.63,6.78-1.88,9.76c-1.26,2.98-2.99,5.57-5.2,7.79-2.21,2.21-4.81,3.93-7.78,5.17-2.98,1.23-6.19,1.85-9.64,1.85"></path><polygon class="cls-1" points="687.22 224.61 687.22 177.07 693.29 177.07 719.96 213.89 717.09 214.34 717.09 177.07 724.55 177.07 724.55 224.61 718.49 224.61 692.01 187.53 694.75 187.03 694.75 224.61 687.22 224.61"></polygon></g></g></svg>