<svg xmlns="http://www.w3.org/2000/svg" xmlns:xlink="http://www.w3.org/1999/xlink" id="Livello_1" x="0px" y="0px" viewBox="0 0 552.7 83.5" style="enable-background:new 0 0 552.7 83.5;" xml:space="preserve"><style type="text/css">	.st0{fill:#FFFFFF;}</style><g id="Livello_1-2_00000175306551599261929290000007926731736813780151_">	<g>		<path class="st0" d="M69.8,82.5H48.6L14.4,23.9h-0.5c0.7,10.3,1,17.7,1,22.1v36.5H0V5h21l34.2,58h0.4c-0.5-10.1-0.8-17.2-0.8-21.4   V5h15V82.5z"></path>		<path class="st0" d="M93.1,52.7c0,5.9,1,10.3,2.9,13.3c2,3,5.1,4.5,9.6,4.5s7.5-1.5,9.4-4.5c1.9-3,2.9-7.4,2.9-13.3   s-1-10.3-2.9-13.2c-1.9-2.9-5.1-4.4-9.5-4.4s-7.5,1.5-9.5,4.4C94.1,42.4,93.1,46.8,93.1,52.7 M134.7,52.7c0,9.6-2.6,17.2-7.8,22.6   c-5.2,5.4-12.4,8.2-21.6,8.2c-5.8,0-10.9-1.2-15.3-3.7c-4.4-2.5-7.8-6.1-10.2-10.7c-2.4-4.7-3.5-10.1-3.5-16.3   c0-9.7,2.6-17.2,7.7-22.6c5.1-5.4,12.3-8.1,21.6-8.1c5.8,0,10.9,1.2,15.3,3.7c4.4,2.5,7.8,6,10.2,10.6   C133.5,41.1,134.7,46.5,134.7,52.7"></path>		<path class="st0" d="M154.3,82.5l-22.9-59.2h17.2L160.1,57c1.3,4.3,2.1,8.3,2.4,12.1h0.3c0.2-3.4,1-7.4,2.4-12.1l11.6-33.8H194   l-22.9,59.2L154.3,82.5L154.3,82.5z"></path>		<path class="st0" d="M227.7,55l-6.4,0.2c-4.8,0.1-8.3,1-10.6,2.5c-2.3,1.6-3.5,3.9-3.5,7.1c0,4.6,2.7,6.8,8,6.8   c3.8,0,6.8-1.1,9.1-3.2c2.3-2.2,3.4-5,3.4-8.6V55L227.7,55z M232.6,82.5l-3.2-8.1H229c-2.8,3.4-5.6,5.8-8.5,7.1   c-2.9,1.3-6.7,2-11.4,2c-5.8,0-10.3-1.6-13.6-4.9c-3.3-3.3-5-7.9-5-13.9c0-6,2.2-10.9,6.7-13.9c4.5-3,11.2-4.6,20.2-4.9l10.4-0.3   V43c0-6-3.1-9-9.4-9c-4.8,0-10.5,1.4-16.9,4.3L196,27.4c6.9-3.6,14.6-5.4,23-5.4s14.3,1.7,18.6,5.2c4.3,3.5,6.5,8.7,6.5,15.8v39.5   H232.6L232.6,82.5z"></path>		<path class="st0" d="M277.1,83.5c-18.7,0-28.1-10.1-28.1-30.4c0-10.1,2.5-17.8,7.6-23.1c5.1-5.3,12.4-8,21.9-8   c7,0,13.2,1.3,18.7,4l-4.8,12.5c-2.6-1-5-1.9-7.2-2.5c-2.2-0.6-4.4-1-6.7-1c-8.5,0-12.8,6-12.8,17.9s4.3,17.4,12.8,17.4   c3.2,0,6.1-0.4,8.8-1.2c2.7-0.8,5.4-2.1,8.1-3.9v13.8c-2.7,1.7-5.3,2.8-8,3.4S281.2,83.5,277.1,83.5"></path>		<path class="st0" d="M343.6,82.5l-2.2-7.6h-0.9c-1.8,2.8-4.2,4.9-7.5,6.4c-3.2,1.5-6.9,2.2-11,2.2c-7.1,0-12.4-1.9-16-5.6   c-3.6-3.7-5.4-9.1-5.4-16.1V23.2h16.4v34.6c0,4.3,0.8,7.5,2.3,9.6c1.5,2.1,4,3.2,7.4,3.2c4.6,0,7.9-1.5,9.9-4.5c2-3,3.1-8,3.1-15   V23.2h16.4v59.2L343.6,82.5L343.6,82.5z"></path>		<path class="st0" d="M389.6,83.5c-18.7,0-28.1-10.1-28.1-30.4c0-10.1,2.5-17.8,7.6-23.1c5.1-5.3,12.4-8,21.9-8   c7,0,13.2,1.3,18.7,4l-4.8,12.5c-2.6-1-5-1.9-7.2-2.5c-2.2-0.6-4.4-1-6.7-1c-8.5,0-12.8,6-12.8,17.9s4.3,17.4,12.8,17.4   c3.2,0,6.1-0.4,8.8-1.2c2.7-0.8,5.4-2.1,8.1-3.9v13.8c-2.7,1.7-5.3,2.8-8,3.4S393.7,83.5,389.6,83.5"></path>		<path class="st0" d="M430,82.5h-16.4V23.2H430C430,23.2,430,82.5,430,82.5z M412.9,7.9c0-5.3,3-7.9,8.9-7.9s8.9,2.6,8.9,7.9   c0,2.5-0.7,4.5-2.2,5.9c-1.5,1.4-3.7,2.1-6.7,2.1C415.8,15.8,412.9,13.2,412.9,7.9"></path>		<path class="st0" d="M494.4,82.5H478V47.9c0-4.3-0.8-7.5-2.3-9.6c-1.5-2.1-4-3.2-7.4-3.2c-4.6,0-7.9,1.5-9.9,4.5   c-2,3-3.1,8-3.1,15v27.9h-16.4V23.2h12.5l2.2,7.6h0.9c1.8-2.9,4.4-5,7.6-6.5c3.2-1.5,6.9-2.2,11-2.2c7,0,12.3,1.9,15.9,5.6   c3.6,3.7,5.4,9.1,5.4,16.1L494.4,82.5L494.4,82.5z"></path>		<path class="st0" d="M536.4,55l-6.4,0.2c-4.8,0.1-8.3,1-10.6,2.5c-2.3,1.6-3.5,3.9-3.5,7.1c0,4.6,2.7,6.8,8,6.8   c3.8,0,6.8-1.1,9.1-3.2c2.3-2.2,3.4-5,3.4-8.6V55L536.4,55z M541.3,82.5l-3.2-8.1h-0.4c-2.8,3.4-5.6,5.8-8.5,7.1   c-2.9,1.3-6.7,2-11.4,2c-5.8,0-10.3-1.6-13.6-4.9c-3.3-3.3-5-7.9-5-13.9c0-6,2.2-10.9,6.7-13.9c4.5-3,11.2-4.6,20.2-4.9l10.4-0.3   V43c0-6-3.1-9-9.4-9c-4.8,0-10.5,1.4-16.9,4.3l-5.4-10.9c6.9-3.6,14.6-5.4,23-5.4s14.3,1.7,18.6,5.2c4.3,3.5,6.5,8.7,6.5,15.8   v39.5H541.3z"></path>	</g></g></svg>